# 741 vertices, 1448 faces
v -0.011611 0.003013 0.000000
v -0.028499 -0.010721 0.000000
v -0.029086 -0.010611 0.000000
v -0.028335 -0.009485 0.000000
v 0.035054 -0.027059 0.000000
v -0.027398 -0.010085 0.000000
v -0.018346 -0.016769 0.000000
v -0.015899 -0.015776 0.000000
v -0.009982 0.035598 0.000000
v -0.028306 -0.008824 0.000000
v -0.028157 -0.006360 0.000000
v -0.029483 -0.010665 0.000000
v -0.025843 -0.007888 0.000000
v -0.027880 -0.011305 0.000000
v -0.028416 -0.009172 0.000000
v -0.017601 -0.016130 0.000000
v -0.028254 -0.009938 0.000000
v -0.012962 0.016184 0.000000
v -0.017601 -0.016865 0.000000
v 0.009967 -0.017703 0.000000
v -0.028407 -0.008386 0.000000
v -0.019251 -0.016408 0.000000
v -0.014674 0.022396 0.000000
v -0.013339 -0.018221 0.000000
v 0.014130 -0.021920 0.000000
v -0.027917 -0.008457 0.000000
v -0.008975 0.021653 0.000000
v -0.010242 0.015859 0.000000
v -0.023640 0.009116 0.000000
v -0.018756 0.010709 0.000000
v -0.017540 -0.015676 0.000000
v -0.056639 0.009363 0.000000
v -0.007443 0.021315 0.000000
v -0.028090 -0.009736 0.000000
v -0.018246 0.005689 0.000000
v -0.015962 -0.016568 0.000000
v 0.006280 0.021078 0.000000
v -0.013822 0.000166 0.000000
v -0.029746 -0.010646 0.000000
v -0.017543 0.002593 0.000000
v -0.028152 -0.009570 0.000000
v -0.015682 -0.016184 0.000000
v -0.020977 -0.017691 0.000000
v -0.064577 -0.026749 0.000000
v -0.011934 0.001077 0.000000
v -0.014307 -0.053707 0.000000
v 0.060349 0.017013 0.000000
v -0.009557 0.027531 0.000000
v -0.014813 0.013154 0.000000
v -0.026650 -0.012297 0.000000
v -0.028269 -0.007680 0.000000
v 0.034880 0.030576 0.000000
v -0.016089 -0.015057 0.000000
v 0.009044 -0.000876 0.000000
v -0.012555 0.010321 0.000000
v -0.019093 -0.002901 0.000000
v -0.014124 0.018590 0.000000
v -0.028027 -0.009594 0.000000
v -0.016171 -0.015671 0.000000
v -0.017651 -0.018491 0.000000
v -0.015075 0.016294 0.000000
v 0.016180 0.000857 0.000000
v -0.006980 0.024498 0.000000
v -0.029684 -0.011007 0.000000
v 0.015302 -0.032997 0.000000
v 0.039055 0.017485 0.000000
v 0.064577 -0.026749 0.000000
v -0.010871 0.024061 0.000000
v -0.011428 0.019642 0.000000
v -0.021068 -0.001459 0.000000
v 0.060817 -0.005995 0.000000
v 0.045784 -0.035935 0.000000
v -0.012564 0.033564 0.000000
v -0.027845 -0.009818 0.000000
v -0.013614 0.028644 0.000000
v -0.049425 0.049425 0.000000
v -0.024184 -0.005627 0.000000
v -0.028136 -0.009917 0.000000
v -0.006527 0.028981 0.000000
v 0.023045 -0.025121 0.000000
v 0.068554 0.013636 0.000000
v -0.018196 -0.015604 0.000000
v -0.016750 -0.004769 0.000000
v -0.017901 -0.014162 0.000000
v -0.028776 -0.010651 0.000000
v -0.016546 -0.000745 0.000000
v -0.019707 -0.014258 0.000000
v -0.012086 0.013567 0.000000
v -0.025557 -0.003331 0.000000
v 0.012923 0.004114 0.000000
v -0.017079 -0.015886 0.000000
v 0.027598 0.021995 0.000000
v -0.016593 -0.015263 0.000000
v -0.009792 0.031470 0.000000
v -0.012402 -0.034208 0.000000
v 0.026749 -0.064577 0.000000
v -0.017936 -0.016342 0.000000
v -0.012295 0.004524 0.000000
v 0.026749 0.064577 0.000000
v 0.013636 0.068554 0.000000
v -0.027333 -0.007498 0.000000
v -0.038833 0.058117 0.000000
v -0.001055 0.062388 0.000000
v -0.000000 0.069897 0.000000
v -0.013636 0.068554 0.000000
v -0.028773 -0.008113 0.000000
v -0.019032 -0.017717 0.000000
v -0.026749 0.064577 0.000000
v -0.009772 -0.030714 0.000000
v -0.028608 -0.010966 0.000000
v -0.027236 -0.014301 0.000000
v -0.038633 0.046442 0.000000
v -0.022727 0.013448 0.000000
v -0.029897 -0.011553 0.000000
v -0.028484 0.009850 0.000000
v -0.044061 0.010924 0.000000
v -0.028917 -0.010192 0.000000
v -0.031771 0.033625 0.000000
v -0.036461 0.031777 0.000000
v -0.029630 -0.009115 0.000000
v -0.028551 -0.011710 0.000000
v -0.018874 0.030304 0.000000
v -0.029392 -0.008382 0.000000
v -0.028490 -0.009689 0.000000
v -0.030348 -0.010283 0.000000
v -0.030334 0.027332 0.000000
v -0.029949 -0.009678 0.000000
v -0.028989 -0.009429 0.000000
v -0.028354 -0.010127 0.000000
v -0.028347 -0.009989 0.000000
v -0.031335 -0.008709 0.000000
v -0.012857 0.043510 0.000000
v -0.029241 -0.010730 0.000000
v -0.016749 -0.017091 0.000000
v -0.031029 -0.010402 0.000000
v -0.028839 -0.009681 0.000000
v -0.030866 -0.011169 0.000000
v -0.054207 0.023567 0.000000
v -0.029351 -0.010132 0.000000
v -0.016994 0.015109 0.000000
v -0.026921 0.007268 0.000000
v -0.030168 -0.008815 0.000000
v -0.016789 0.029816 0.000000
v -0.028437 -0.010228 0.000000
v -0.029167 0.041430 0.000000
v -0.029585 -0.010365 0.000000
v -0.045861 0.020428 0.000000
v -0.020979 0.033039 0.000000
v -0.023797 0.017424 0.000000
v -0.031457 -0.005801 0.000000
v -0.018190 0.021251 0.000000
v -0.033344 0.029411 0.000000
v -0.028894 0.016738 0.000000
v -0.021935 0.028347 0.000000
v -0.031853 0.050783 0.000000
v -0.028684 -0.009800 0.000000
v -0.029404 -0.009621 0.000000
v -0.032010 0.017573 0.000000
v -0.019842 0.016956 0.000000
v -0.028498 -0.009932 0.000000
v -0.028998 -0.010441 0.000000
v -0.028578 -0.010154 0.000000
v -0.028556 0.018775 0.000000
v -0.029636 -0.010022 0.000000
v -0.021949 0.022316 0.000000
v -0.029237 -0.009080 0.000000
v -0.029173 -0.010488 0.000000
v -0.029314 -0.010531 0.000000
v -0.029892 -0.010312 0.000000
v -0.028194 0.013683 0.000000
v -0.016665 0.034162 0.000000
v -0.012766 0.037945 0.000000
v -0.024885 0.012096 0.000000
v -0.026814 0.016921 0.000000
v -0.028727 -0.010172 0.000000
v 0.021659 0.002153 0.000000
v -0.017140 0.055428 0.000000
v -0.023974 0.049699 0.000000
v -0.034810 0.024908 0.000000
v -0.028771 -0.008854 0.000000
v -0.028906 -0.010518 0.000000
v -0.029034 -0.009892 0.000000
v -0.012982 0.049236 0.000000
v -0.011474 -0.016056 0.000000
v -0.030136 -0.007432 0.000000
v -0.031355 0.000794 0.000000
v -0.029412 -0.010962 0.000000
v 0.000149 0.001897 0.000000
v -0.039057 0.018449 0.000000
v -0.030566 -0.009577 0.000000
v 0.002662 0.000204 0.000000
v -0.025869 0.025559 0.000000
v -0.036953 0.003234 0.000000
v -0.031286 0.010467 0.000000
v -0.050182 0.014182 0.000000
v -0.028808 -0.010410 0.000000
v -0.028646 -0.009444 0.000000
v -0.029028 -0.007264 0.000000
v -0.032138 -0.010312 0.000000
v -0.026007 0.020520 0.000000
v -0.029055 0.022124 0.000000
v -0.050207 0.035449 0.000000
v -0.046745 0.028616 0.000000
v -0.016483 0.018433 0.000000
v -0.025441 0.014385 0.000000
v -0.018058 -0.017678 0.000000
v -0.017447 0.046310 0.000000
v -0.042539 0.036803 0.000000
v -0.028288 -0.009782 0.000000
v -0.031552 0.022984 0.000000
v -0.035388 0.039085 0.000000
v -0.029124 -0.010251 0.000000
v -0.033760 0.044435 0.000000
v -0.016394 -0.017648 0.000000
v -0.028655 -0.010118 0.000000
v -0.002890 0.031384 0.000000
v -0.036689 0.010031 0.000000
v -0.021487 0.039668 0.000000
v -0.016244 0.040319 0.000000
v -0.016361 -0.017388 0.000000
v -0.028659 -0.010027 0.000000
v -0.040912 0.026830 0.000000
v -0.028842 -0.009840 0.000000
v -0.029273 -0.010363 0.000000
v -0.028662 -0.010314 0.000000
v -0.028810 -0.009987 0.000000
v -0.033853 -0.008621 0.000000
v -0.029401 -0.010411 0.000000
v 0.014762 0.008570 0.000000
v -0.009656 -0.025246 0.000000
v 0.010995 0.008312 0.000000
v -0.015015 -0.015865 0.000000
v 0.004480 0.012769 0.000000
v -0.025935 0.032714 0.000000
v -0.018004 0.026153 0.000000
v -0.028443 -0.010086 0.000000
v -0.029438 -0.005618 0.000000
v -0.026228 0.012739 0.000000
v -0.026392 0.010792 0.000000
v -0.014771 -0.017909 0.000000
v 0.008363 0.022135 0.000000
v 0.026053 -0.006368 0.000000
v -0.016395 -0.017059 0.000000
v -0.028655 -0.010478 0.000000
v -0.017166 -0.018960 0.000000
v -0.028969 -0.010615 0.000000
v -0.016799 -0.018592 0.000000
v -0.028689 -0.010582 0.000000
v 0.026238 0.032765 0.000000
v -0.030562 -0.010849 0.000000
v -0.029051 -0.010782 0.000000
v -0.041897 -0.015603 0.000000
v -0.028678 -0.010653 0.000000
v -0.028728 0.002979 0.000000
v 0.021978 0.027463 0.000000
v -0.016475 -0.017145 0.000000
v -0.019197 -0.019183 0.000000
v -0.038597 -0.008058 0.000000
v 0.002344 0.031159 0.000000
v -0.029625 -0.002260 0.000000
v -0.017009 -0.019516 0.000000
v -0.040744 0.004946 0.000000
v -0.016322 -0.017137 0.000000
v -0.016580 -0.017188 0.000000
v -0.032713 0.004625 0.000000
v -0.028725 -0.010631 0.000000
v -0.016533 -0.017767 0.000000
v 0.036729 -0.010069 0.000000
v 0.052140 0.019243 0.000000
v -0.016471 -0.017305 0.000000
v 0.026894 0.001088 0.000000
v 0.031327 -0.000501 0.000000
v 0.010125 0.005117 0.000000
v 0.005586 0.015343 0.000000
v -0.028751 -0.010560 0.000000
v -0.030482 -0.011513 0.000000
v -0.017359 -0.017647 0.000000
v -0.014807 -0.016504 0.000000
v -0.006612 -0.012036 0.000000
v 0.048127 -0.002606 0.000000
v -0.016225 -0.016805 0.000000
v 0.008604 -0.021868 0.000000
v 0.004214 0.009217 0.000000
v -0.016454 -0.017512 0.000000
v -0.015547 -0.018438 0.000000
v -0.036581 -0.020716 0.000000
v -0.040267 -0.001261 0.000000
v -0.016391 -0.017194 0.000000
v -0.015099 -0.017956 0.000000
v -0.015792 -0.016881 0.000000
v -0.028733 -0.010711 0.000000
v 0.013033 -0.013090 0.000000
v -0.016665 -0.017420 0.000000
v -0.045206 -0.007318 0.000000
v 0.000606 0.004462 0.000000
v -0.015471 -0.016997 0.000000
v -0.033084 -0.011917 0.000000
v 0.008245 0.017854 0.000000
v -0.016689 -0.018162 0.000000
v -0.028850 -0.010605 0.000000
v -0.030087 -0.010881 0.000000
v 0.049886 -0.021035 0.000000
v -0.029626 0.007038 0.000000
v 0.010121 -0.010681 0.000000
v 0.011426 -0.007335 0.000000
v -0.028921 -0.010735 0.000000
v -0.034353 -0.002168 0.000000
v 0.007710 0.011945 0.000000
v -0.018362 -0.018577 0.000000
v -0.001318 0.000068 0.000000
v -0.016108 -0.016810 0.000000
v -0.016887 -0.017763 0.000000
v -0.036008 -0.013379 0.000000
v -0.000281 -0.002236 0.000000
v -0.016014 -0.016877 0.000000
v -0.014282 -0.016960 0.000000
v 0.058117 -0.038833 0.000000
v 0.017442 -0.042775 0.000000
v -0.000751 -0.013084 0.000000
v -0.016984 -0.017312 0.000000
v -0.017092 -0.018269 0.000000
v -0.031389 -0.011912 0.000000
v -0.016335 -0.016974 0.000000
v -0.016315 -0.016872 0.000000
v -0.016401 -0.016934 0.000000
v -0.016539 -0.016978 0.000000
v -0.016305 -0.016754 0.000000
v -0.014199 0.005217 0.000000
v -0.021537 -0.004389 0.000000
v -0.024067 0.000757 0.000000
v -0.028020 -0.009253 0.000000
v -0.016239 -0.016688 0.000000
v -0.014057 -0.003099 0.000000
v -0.015263 0.002438 0.000000
v -0.016421 -0.016787 0.000000
v -0.021908 0.001494 0.000000
v -0.013187 0.002739 0.000000
v -0.011948 -0.001411 0.000000
v -0.016389 -0.013915 0.000000
v -0.028564 -0.010478 0.000000
v -0.064577 0.026749 0.000000
v -0.017929 -0.011951 0.000000
v -0.015033 -0.011135 0.000000
v -0.016575 -0.016769 0.000000
v -0.021139 0.005667 0.000000
v -0.016323 -0.016617 0.000000
v -0.016169 -0.016557 0.000000
v 0.038425 0.003774 0.000000
v -0.045749 0.001800 0.000000
v -0.068554 -0.013636 0.000000
v -0.019696 -0.011923 0.000000
v 0.017240 -0.005737 0.000000
v -0.019298 0.000357 0.000000
v -0.002922 -0.009383 0.000000
v -0.017161 -0.008499 0.000000
v -0.061330 0.014920 0.000000
v -0.016135 0.007350 0.000000
v -0.028542 -0.010358 0.000000
v -0.028412 -0.010375 0.000000
v -0.009807 -0.007483 0.000000
v 0.068554 -0.013636 0.000000
v 0.000102 -0.007829 0.000000
v -0.019362 -0.006402 0.000000
v 0.002371 -0.008896 0.000000
v -0.015141 -0.016681 0.000000
v 0.017038 0.005309 0.000000
v -0.016715 -0.016855 0.000000
v -0.016706 -0.016641 0.000000
v -0.016170 -0.016708 0.000000
v -0.028206 -0.010494 0.000000
v -0.022014 -0.008088 0.000000
v -0.069897 -0.000000 0.000000
v 0.069897 0.000000 0.000000
v 0.013185 0.014264 0.000000
v -0.016492 -0.016585 0.000000
v -0.016277 0.004657 0.000000
v -0.068554 0.013636 0.000000
v -0.015098 -0.018984 0.000000
v 0.045029 0.028473 0.000000
v 0.024274 -0.052168 0.000000
v -0.010335 0.001953 0.000000
v -0.026650 -0.005503 0.000000
v -0.003052 0.004262 0.000000
v -0.028296 -0.010266 0.000000
v -0.017283 -0.015084 0.000000
v -0.016617 -0.016367 0.000000
v -0.026198 -0.000443 0.000000
v 0.056127 0.008426 0.000000
v -0.016251 -0.016029 0.000000
v 0.004512 0.018801 0.000000
v -0.024657 0.003834 0.000000
v -0.023503 -0.001857 0.000000
v -0.016312 -0.016330 0.000000
v -0.019616 -0.009764 0.000000
v -0.008129 -0.016775 0.000000
v -0.002349 -0.001728 0.000000
v -0.010179 -0.001746 0.000000
v -0.017009 -0.016794 0.000000
v -0.015972 -0.016149 0.000000
v -0.015265 0.009893 0.000000
v 0.038833 -0.058117 0.000000
v -0.014278 -0.006971 0.000000
v -0.014066 0.007932 0.000000
v -0.028091 -0.010160 0.000000
v -0.016829 -0.016473 0.000000
v -0.024184 -0.008331 0.000000
v -0.001831 0.002065 0.000000
v -0.054078 -0.003121 0.000000
v -0.028246 -0.010066 0.000000
v -0.010699 -0.000000 0.000000
v -0.050142 0.006630 0.000000
v -0.017238 -0.017155 0.000000
v -0.017257 -0.016406 0.000000
v -0.016998 -0.016353 0.000000
v -0.016548 -0.015965 0.000000
v -0.060259 -0.014651 0.000000
v -0.028224 -0.004593 0.000000
v -0.016814 -0.016209 0.000000
v 0.008155 -0.004085 0.000000
v 0.046775 0.009264 0.000000
v -0.019627 0.003160 0.000000
v -0.058117 0.038833 0.000000
v -0.001037 0.003667 0.000000
v -0.027251 -0.003226 0.000000
v -0.027921 -0.010175 0.000000
v -0.014838 -0.013696 0.000000
v -0.050649 -0.017667 0.000000
v -0.010996 -0.004864 0.000000
v 0.064577 0.026749 0.000000
v -0.028322 -0.011933 0.000000
v -0.004980 -0.029342 0.000000
v -0.007637 -0.050839 0.000000
v 0.049425 0.049425 0.000000
v 0.038833 0.058117 0.000000
v 0.053067 0.027290 0.000000
v 0.026040 0.052577 0.000000
v -0.026187 -0.009485 0.000000
v -0.005869 0.026740 0.000000
v -0.015448 -0.014974 0.000000
v -0.004100 0.026742 0.000000
v -0.003807 0.023103 0.000000
v 0.001907 0.011996 0.000000
v -0.007040 0.008538 0.000000
v -0.005850 0.003392 0.000000
v -0.007729 0.005783 0.000000
v -0.010304 0.004771 0.000000
v 0.000908 0.018415 0.000000
v -0.016121 -0.016371 0.000000
v -0.012174 0.006879 0.000000
v -0.003947 0.014099 0.000000
v 0.002983 0.015345 0.000000
v -0.001447 0.011919 0.000000
v 0.008671 -0.027843 0.000000
v -0.008150 0.018751 0.000000
v -0.016050 -0.016609 0.000000
v -0.009622 0.008508 0.000000
v 0.000505 0.014744 0.000000
v -0.027165 -0.009103 0.000000
v -0.005190 0.006757 0.000000
v -0.004969 0.010690 0.000000
v -0.005669 0.020357 0.000000
v 0.002805 0.021896 0.000000
v -0.006965 0.014694 0.000000
v -0.015843 -0.015460 0.000000
v 0.040513 0.041548 0.000000
v -0.001826 0.016046 0.000000
v 0.030845 0.041188 0.000000
v 0.058117 0.038833 0.000000
v -0.002501 0.007877 0.000000
v -0.028377 -0.010694 0.000000
v -0.023682 -0.010385 0.000000
v -0.002445 0.019949 0.000000
v -0.015530 -0.017896 0.000000
v -0.007691 0.010949 0.000000
v -0.004530 0.017147 0.000000
v -0.014353 -0.015001 0.000000
v -0.006329 0.017737 0.000000
v 0.034058 0.048357 0.000000
v 0.050522 0.034697 0.000000
v -0.009860 0.012316 0.000000
v -0.008364 0.002735 0.000000
v -0.002015 0.022450 0.000000
v -0.028594 -0.010782 0.000000
v 0.002008 -0.042860 0.000000
v 0.028234 -0.016687 0.000000
v -0.015976 -0.016687 0.000000
v -0.027448 -0.010827 0.000000
v -0.016110 -0.016679 0.000000
v -0.015611 -0.016718 0.000000
v -0.015692 -0.017683 0.000000
v 0.008060 -0.013433 0.000000
v -0.012965 -0.013454 0.000000
v -0.015933 -0.016985 0.000000
v -0.038833 -0.058117 0.000000
v -0.015366 -0.017337 0.000000
v -0.009923 -0.012870 0.000000
v 0.049425 -0.049425 0.000000
v -0.014927 -0.017112 0.000000
v -0.006868 0.000385 0.000000
v -0.027761 -0.010339 0.000000
v -0.001056 0.005650 0.000000
v 0.007159 0.002670 0.000000
v 0.007266 0.005860 0.000000
v 0.020289 -0.014820 0.000000
v -0.015431 -0.018792 0.000000
v -0.025196 -0.009669 0.000000
v 0.036438 -0.043324 0.000000
v -0.015093 -0.016350 0.000000
v -0.011670 -0.009460 0.000000
v -0.015929 -0.016809 0.000000
v -0.015910 -0.016446 0.000000
v -0.015994 -0.017198 0.000000
v -0.027988 -0.010383 0.000000
v -0.009100 0.000125 0.000000
v -0.016052 -0.016713 0.000000
v -0.015738 -0.016415 0.000000
v 0.004364 -0.014615 0.000000
v 0.004966 -0.010871 0.000000
v 0.004899 -0.003123 0.000000
v -0.026926 -0.011267 0.000000
v 0.000157 -0.010364 0.000000
v 0.006661 -0.000048 0.000000
v 0.005393 0.002687 0.000000
v 0.001964 -0.004897 0.000000
v -0.016271 -0.017175 0.000000
v -0.016146 -0.017161 0.000000
v -0.028226 -0.010785 0.000000
v -0.028487 -0.010603 0.000000
v 0.001658 0.002828 0.000000
v 0.003215 0.004748 0.000000
v 0.000303 -0.000017 0.000000
v 0.009317 0.002183 0.000000
v 0.000705 0.007981 0.000000
v -0.016183 -0.017470 0.000000
v -0.015610 -0.015822 0.000000
v -0.026773 -0.010337 0.000000
v -0.014385 -0.016058 0.000000
v -0.016088 -0.017477 0.000000
v -0.025960 -0.010430 0.000000
v -0.016130 -0.017330 0.000000
v -0.015408 -0.016348 0.000000
v -0.016011 -0.017389 0.000000
v 0.011560 -0.050586 0.000000
v -0.015871 -0.017376 0.000000
v -0.016031 -0.016450 0.000000
v -0.008687 -0.009442 0.000000
v 0.001985 -0.012628 0.000000
v -0.015496 -0.017619 0.000000
v -0.016016 -0.016779 0.000000
v -0.015239 -0.017019 0.000000
v 0.005053 -0.006790 0.000000
v -0.015044 -0.018563 0.000000
v -0.005841 -0.001793 0.000000
v -0.004083 -0.003219 0.000000
v -0.016086 -0.017000 0.000000
v -0.006203 -0.003984 0.000000
v -0.015235 -0.017769 0.000000
v -0.003059 -0.005611 0.000000
v -0.011024 -0.019055 0.000000
v -0.015585 -0.017175 0.000000
v -0.015374 -0.016753 0.000000
v -0.008152 -0.002578 0.000000
v -0.015783 -0.017144 0.000000
v -0.015658 -0.017412 0.000000
v -0.015648 -0.016983 0.000000
v -0.016266 -0.017112 0.000000
v -0.009040 -0.020869 0.000000
v -0.002166 -0.003680 0.000000
v -0.012820 -0.020572 0.000000
v 0.000802 -0.017937 0.000000
v -0.015091 -0.017472 0.000000
v -0.015156 -0.017235 0.000000
v -0.005063 -0.006167 0.000000
v -0.006232 -0.008639 0.000000
v -0.007877 -0.006165 0.000000
v -0.014631 -0.018940 0.000000
v -0.003899 0.000429 0.000000
v 0.012041 -0.001554 0.000000
v -0.001060 -0.005606 0.000000
v -0.013466 -0.015958 0.000000
v -0.026326 -0.011165 0.000000
v 0.006007 -0.018204 0.000000
v -0.015972 -0.017564 0.000000
v -0.003778 -0.015108 0.000000
v -0.014244 -0.020318 0.000000
v -0.015846 -0.016646 0.000000
v -0.015810 -0.017548 0.000000
v 0.007964 -0.008866 0.000000
v -0.028324 -0.010411 0.000000
v 0.000000 -0.069897 0.000000
v -0.028382 -0.010509 0.000000
v -0.028488 -0.010477 0.000000
v -0.028540 -0.010540 0.000000
v -0.021534 -0.011719 0.000000
v -0.028593 -0.010537 0.000000
v -0.025319 -0.011492 0.000000
v -0.025570 -0.013492 0.000000
v -0.028571 -0.010603 0.000000
v -0.023846 -0.013010 0.000000
v -0.028553 -0.010676 0.000000
v -0.022173 -0.014608 0.000000
v -0.024801 -0.016361 0.000000
v -0.023912 -0.020879 0.000000
v -0.016191 -0.016919 0.000000
v -0.027931 -0.022681 0.000000
v -0.013636 -0.068554 0.000000
v -0.032652 -0.025401 0.000000
v -0.044340 -0.026478 0.000000
v -0.033288 -0.032041 0.000000
v -0.037609 -0.028448 0.000000
v -0.016250 -0.016889 0.000000
v -0.041185 -0.037604 0.000000
v -0.026749 -0.064577 0.000000
v -0.016267 -0.016958 0.000000
v -0.032028 -0.038881 0.000000
v -0.058117 -0.038833 0.000000
v -0.016299 -0.017048 0.000000
v -0.033488 -0.049120 0.000000
v -0.049425 -0.049425 0.000000
v -0.028461 -0.011051 0.000000
v -0.028615 -0.011170 0.000000
v -0.017767 -0.027534 0.000000
v -0.028862 -0.011817 0.000000
v 0.008466 0.030619 0.000000
v 0.004245 -0.023669 0.000000
v -0.027970 -0.011905 0.000000
v -0.016212 -0.017049 0.000000
v -0.027962 -0.010747 0.000000
v -0.027738 -0.012654 0.000000
v -0.020686 -0.034297 0.000000
v -0.016370 -0.017287 0.000000
v 0.013636 -0.068554 0.000000
v -0.015858 -0.017706 0.000000
v -0.021291 -0.053329 0.000000
v 0.007756 -0.035197 0.000000
v 0.001987 -0.031404 0.000000
v -0.027274 -0.033728 0.000000
v -0.028208 -0.012282 0.000000
v -0.028296 -0.013391 0.000000
v -0.028424 -0.017540 0.000000
v -0.028355 -0.010895 0.000000
v -0.015754 -0.033448 0.000000
v -0.011339 -0.021835 0.000000
v -0.028238 -0.011546 0.000000
v -0.028764 -0.011090 0.000000
v -0.014663 -0.042105 0.000000
v -0.028369 -0.012696 0.000000
v -0.026267 -0.019365 0.000000
v -0.000600 -0.024757 0.000000
v -0.024905 -0.041910 0.000000
v 0.001186 -0.056279 0.000000
v -0.013251 -0.029097 0.000000
v -0.028634 -0.010588 0.000000
v -0.003193 -0.036162 0.000000
v 0.005506 0.024925 0.000000
v -0.016257 -0.017368 0.000000
v -0.028952 -0.011212 0.000000
v 0.010814 -0.040883 0.000000
v -0.028641 -0.012222 0.000000
v -0.016225 -0.017148 0.000000
v -0.008570 -0.035677 0.000000
v -0.005054 -0.021434 0.000000
v -0.028477 -0.011331 0.000000
v 0.028536 0.009069 0.000000
v -0.004906 0.046248 0.000000
v -0.028228 -0.011094 0.000000
v -0.027436 -0.011709 0.000000
v -0.006411 -0.041529 0.000000
v -0.028482 -0.010852 0.000000
v 0.025259 -0.037241 0.000000
v -0.008051 0.054191 0.000000
v 0.009707 0.025403 0.000000
v 0.001309 0.025432 0.000000
v 0.002778 0.050743 0.000000
v 0.012550 0.035475 0.000000
v 0.012077 0.021413 0.000000
v 0.006566 0.038831 0.000000
v 0.014814 0.045936 0.000000
v -0.015290 -0.018190 0.000000
v 0.004776 0.021675 0.000000
v -0.009416 0.046740 0.000000
v -0.015666 -0.018200 0.000000
v 0.019669 0.010853 0.000000
v 0.023661 0.015704 0.000000
v -0.008284 0.040514 0.000000
v 0.023344 0.041306 0.000000
v -0.006505 0.034500 0.000000
v -0.000993 0.027867 0.000000
v 0.018840 0.020900 0.000000
v -0.001631 0.024620 0.000000
v 0.018430 0.027588 0.000000
v 0.014122 0.027923 0.000000
v 0.018782 0.034065 0.000000
v -0.016030 -0.018190 0.000000
v -0.000178 0.022127 0.000000
v -0.001557 0.039054 0.000000
v -0.016292 -0.017773 0.000000
v -0.016181 -0.018639 0.000000
v -0.016315 -0.017313 0.000000
v -0.016475 -0.018487 0.000000
v -0.030089 -0.012712 0.000000
v -0.016425 -0.020209 0.000000
v -0.016156 -0.017790 0.000000
v -0.028821 -0.010747 0.000000
v -0.016279 -0.017290 0.000000
v -0.014154 -0.023432 0.000000
v -0.023756 -0.027059 0.000000
v -0.028670 -0.010734 0.000000
v -0.016231 -0.017244 0.000000
v -0.029143 -0.011558 0.000000
v -0.029170 -0.011073 0.000000
v -0.016169 -0.017933 0.000000
v -0.029174 -0.014372 0.000000
v -0.029564 -0.011869 0.000000
v -0.016144 -0.017633 0.000000
v -0.028617 -0.010673 0.000000
v -0.015799 -0.017916 0.000000
v -0.016572 -0.019080 0.000000
v -0.019742 -0.022114 0.000000
v -0.031524 -0.020340 0.000000
v -0.029211 -0.012185 0.000000
v -0.016259 -0.018353 0.000000
v -0.016298 -0.017542 0.000000
v -0.017028 -0.023289 0.000000
v -0.015950 -0.019155 0.000000
v -0.016350 -0.018095 0.000000
v -0.029478 -0.011337 0.000000
v -0.028916 -0.010927 0.000000
v -0.015287 -0.019643 0.000000
v -0.028963 -0.012929 0.000000
v -0.017872 -0.019814 0.000000
v -0.017424 -0.021465 0.000000
v -0.015233 -0.021100 0.000000
v -0.032034 -0.015361 0.000000
v -0.028766 -0.011413 0.000000
v -0.016053 -0.021899 0.000000
v -0.028980 -0.028182 0.000000
v -0.015801 -0.018569 0.000000
v -0.016311 -0.017234 0.000000
v -0.028730 -0.010851 0.000000
v -0.016018 -0.017819 0.000000
f 558 354 579
f 268 280 348
f 335 346 375
f 387 330 391
f 712 694 741
f 74 425 500
f 415 91 418
f 7 19 97
f 134 326 367
f 405 386 418
f 398 368 405
f 82 31 385
f 93 91 415
f 386 415 418
f 191 519 522
f 308 231 374
f 333 83 402
f 632 543 651
f 280 388 420
f 446 381 481
f 367 368 398
f 38 333 338
f 419 54 522
f 375 346 393
f 1 45 381
f 16 82 97
f 320 134 398
f 82 7 97
f 518 364 547
f 339 84 385
f 343 339 426
f 81 71 373
f 59 93 415
f 271 242 272
f 237 11 417
f 16 31 82
f 90 62 366
f 33 27 454
f 27 69 454
f 69 28 454
f 327 281 332
f 98 446 449
f 11 51 101
f 330 387 392
f 176 242 271
f 84 82 385
f 27 33 63
f 88 55 480
f 336 345 391
f 59 53 93
f 364 518 551
f 95 646 661
f 13 77 382
f 27 63 68
f 27 68 69
f 28 18 88
f 134 367 398
f 54 419 578
f 22 7 82
f 18 28 69
f 49 55 88
f 18 49 88
f 335 327 346
f 330 336 391
f 48 63 79
f 68 23 69
f 57 18 69
f 250 137 276
f 519 419 522
f 551 518 588
f 362 354 521
f 48 79 94
f 23 57 69
f 55 400 403
f 517 491 518
f 630 622 707
f 68 48 75
f 23 68 75
f 18 57 61
f 55 49 400
f 9 94 687
f 525 263 739
f 663 621 735
f 49 18 61
f 121 663 735
f 702 261 731
f 75 48 94
f 607 286 610
f 9 73 94
f 73 75 94
f 49 61 140
f 5 72 302
f 272 268 348
f 103 100 104
f 75 143 235
f 530 283 533
f 354 573 574
f 697 267 726
f 297 227 313
f 532 54 578
f 701 713 730
f 90 532 578
f 656 220 723
f 30 140 159
f 223 182 226
f 124 156 160
f 32 408 411
f 65 453 635
f 110 483 740
f 220 656 699
f 607 605 720
f 191 188 531
f 519 191 524
f 526 512 555
f 289 557 679
f 84 339 342
f 257 43 719
f 633 583 741
f 46 432 646
f 622 630 642
f 733 702 736
f 116 195 411
f 60 206 309
f 698 725 738
f 98 328 337
f 640 713 734
f 719 724 732
f 554 396 577
f 51 26 101
f 598 595 653
f 715 703 741
f 51 11 198
f 573 556 575
f 91 414 418
f 728 645 740
f 714 710 727
f 123 106 198
f 364 521 547
f 258 227 307
f 554 556 573
f 718 702 725
f 21 51 106
f 106 51 198
f 21 26 51
f 231 308 503
f 220 284 723
f 220 270 284
f 252 258 294
f 291 85 704
f 276 114 301
f 410 397 514
f 10 21 180
f 26 10 331
f 15 10 180
f 364 362 521
f 15 180 197
f 15 4 331
f 10 15 331
f 63 48 68
f 4 124 209
f 89 387 424
f 703 712 741
f 490 633 717
f 233 283 308
f 34 41 209
f 354 362 579
f 242 268 272
f 45 338 410
f 645 110 740
f 700 698 722
f 622 642 652
f 261 245 731
f 274 390 451
f 111 639 713
f 713 639 730
f 414 405 418
f 113 30 159
f 251 711 728
f 160 130 209
f 17 130 409
f 71 361 373
f 348 280 420
f 144 358 359
f 324 327 335
f 245 60 731
f 603 707 719
f 43 603 719
f 398 405 414
f 227 258 313
f 553 499 562
f 276 322 701
f 724 706 736
f 89 77 392
f 6 74 500
f 354 279 584
f 697 715 723
f 698 700 718
f 553 554 577
f 605 640 720
f 694 717 741
f 388 269 420
f 130 160 236
f 26 331 458
f 39 146 169
f 707 622 719
f 121 623 659
f 106 123 180
f 139 146 228
f 258 287 294
f 57 23 204
f 227 150 307
f 151 23 235
f 23 151 204
f 143 122 235
f 157 139 182
f 103 105 671
f 657 645 728
f 122 143 171
f 165 151 235
f 136 182 223
f 172 132 219
f 171 172 219
f 151 159 204
f 139 157 164
f 148 122 171
f 159 151 165
f 218 171 219
f 148 171 218
f 122 148 154
f 122 154 235
f 154 165 235
f 183 132 681
f 132 207 219
f 149 159 165
f 132 183 207
f 207 218 219
f 165 154 192
f 154 148 234
f 149 113 159
f 225 244 358
f 148 218 234
f 165 192 200
f 149 165 200
f 175 117 196
f 177 183 671
f 105 177 671
f 192 154 234
f 183 177 207
f 174 149 200
f 207 178 218
f 178 145 218
f 218 145 234
f 126 192 234
f 192 126 201
f 200 192 201
f 163 200 201
f 163 174 200
f 149 174 205
f 113 149 205
f 177 178 207
f 173 113 205
f 145 118 234
f 118 126 234
f 55 403 449
f 133 12 187
f 161 181 196
f 538 534 715
f 108 155 178
f 177 108 178
f 155 145 178
f 162 160 221
f 126 118 152
f 174 170 205
f 205 170 238
f 173 205 238
f 29 113 173
f 701 322 734
f 137 135 322
f 168 167 224
f 145 155 213
f 211 145 213
f 118 145 211
f 126 152 179
f 201 126 210
f 126 179 210
f 158 201 210
f 158 163 201
f 163 153 174
f 158 153 163
f 153 170 174
f 173 238 239
f 29 173 239
f 623 710 721
f 119 118 211
f 118 119 152
f 238 170 239
f 12 64 187
f 167 212 224
f 387 260 424
f 152 119 179
f 179 158 210
f 30 29 345
f 12 133 168
f 158 179 189
f 170 115 239
f 23 75 235
f 161 117 212
f 179 119 222
f 115 141 239
f 155 112 213
f 102 112 155
f 112 211 213
f 153 158 170
f 115 170 194
f 171 73 172
f 285 505 679
f 208 119 211
f 119 208 222
f 115 194 303
f 141 115 303
f 125 250 301
f 156 136 223
f 124 160 209
f 117 175 226
f 144 129 236
f 519 524 551
f 112 208 211
f 189 179 222
f 170 158 194
f 102 76 112
f 158 189 217
f 181 246 300
f 129 130 236
f 714 701 721
f 215 162 221
f 208 203 222
f 203 147 222
f 147 189 222
f 189 116 217
f 194 158 217
f 169 125 301
f 175 162 215
f 112 76 208
f 147 116 189
f 12 168 228
f 254 141 303
f 366 176 683
f 75 73 171
f 138 147 203
f 703 697 712
f 314 310 396
f 76 202 208
f 202 203 208
f 116 147 195
f 144 162 358
f 700 722 726
f 202 138 203
f 430 121 659
f 156 223 226
f 198 11 237
f 147 138 195
f 61 57 204
f 182 117 226
f 140 61 204
f 64 39 301
f 121 430 644
f 202 76 422
f 39 169 301
f 711 187 727
f 182 139 212
f 729 702 733
f 175 215 221
f 146 139 164
f 593 340 595
f 146 12 228
f 35 30 345
f 117 182 212
f 136 156 197
f 709 525 739
f 150 237 260
f 150 260 307
f 260 237 417
f 263 566 617
f 389 393 399
f 129 144 384
f 156 124 197
f 117 161 196
f 181 161 246
f 150 185 237
f 212 139 224
f 252 286 313
f 527 641 666
f 131 150 227
f 185 198 237
f 243 256 288
f 659 623 721
f 150 131 185
f 185 123 198
f 722 694 726
f 105 108 177
f 287 258 307
f 699 705 739
f 146 164 169
f 224 139 228
f 162 144 236
f 138 202 422
f 175 221 226
f 103 671 674
f 135 131 199
f 142 123 185
f 120 123 142
f 124 4 197
f 705 656 709
f 260 186 307
f 199 297 322
f 39 12 146
f 131 142 185
f 123 166 180
f 123 120 166
f 142 131 190
f 360 509 546
f 21 106 180
f 135 199 322
f 131 135 190
f 646 432 668
f 127 120 142
f 120 157 166
f 120 127 157
f 167 161 212
f 711 657 728
f 135 125 190
f 127 142 190
f 248 253 653
f 4 15 197
f 251 133 711
f 199 227 297
f 157 128 166
f 166 128 180
f 180 128 197
f 288 270 631
f 17 78 209
f 168 224 228
f 125 135 250
f 378 505 729
f 160 156 221
f 221 156 226
f 464 8 535
f 162 175 225
f 3 161 167
f 175 196 225
f 358 340 592
f 157 127 164
f 128 136 197
f 272 348 664
f 252 294 427
f 160 162 236
f 162 225 358
f 127 125 169
f 125 127 190
f 164 127 169
f 103 104 105
f 78 34 209
f 459 383 469
f 128 157 182
f 136 128 182
f 214 267 697
f 47 269 388
f 81 47 388
f 247 299 321
f 245 247 321
f 277 312 320
f 133 187 711
f 298 308 374
f 524 364 551
f 66 92 664
f 71 81 388
f 52 66 379
f 90 273 532
f 502 522 532
f 522 502 523
f 312 293 320
f 295 530 533
f 176 62 352
f 188 310 531
f 266 248 275
f 305 419 588
f 352 62 578
f 481 381 514
f 499 481 514
f 313 286 734
f 442 452 533
f 266 85 291
f 299 700 726
f 107 257 309
f 657 710 735
f 268 5 302
f 244 196 275
f 263 243 288
f 622 652 706
f 583 715 741
f 3 133 251
f 206 60 277
f 19 206 277
f 71 67 361
f 322 297 734
f 85 300 704
f 85 266 275
f 268 242 485
f 60 309 731
f 706 733 736
f 267 299 726
f 293 134 320
f 514 397 562
f 275 196 300
f 305 292 352
f 485 242 504
f 299 267 312
f 304 305 588
f 242 352 504
f 305 352 578
f 66 52 92
f 253 708 716
f 631 220 699
f 383 423 501
f 267 293 312
f 710 657 711
f 161 3 246
f 283 442 533
f 407 383 577
f 7 107 206
f 591 359 592
f 274 233 308
f 362 364 524
f 518 491 588
f 67 71 302
f 206 107 309
f 288 631 739
f 246 251 306
f 85 275 300
f 60 245 321
f 399 448 545
f 546 574 575
f 71 280 302
f 64 114 727
f 277 60 321
f 442 233 451
f 396 554 568
f 681 132 685
f 246 3 251
f 291 704 740
f 354 558 573
f 554 558 568
f 79 438 440
f 352 292 504
f 340 244 595
f 264 134 293
f 258 252 313
f 304 292 305
f 294 287 349
f 5 268 485
f 267 284 293
f 310 407 577
f 444 499 577
f 134 264 326
f 444 481 499
f 199 131 227
f 248 244 275
f 309 257 731
f 80 485 504
f 280 268 302
f 556 553 562
f 270 220 631
f 548 473 557
f 270 264 293
f 284 270 293
f 568 558 579
f 558 554 573
f 279 354 574
f 546 279 574
f 299 312 321
f 133 167 168
f 267 214 284
f 274 298 390
f 698 718 725
f 194 265 303
f 256 270 288
f 710 623 735
f 256 264 270
f 314 568 579
f 264 256 326
f 265 254 303
f 253 291 708
f 653 253 716
f 524 314 579
f 193 217 262
f 217 193 265
f 135 137 250
f 191 314 524
f 314 191 531
f 186 254 265
f 254 186 260
f 262 116 349
f 694 698 738
f 593 595 598
f 300 306 704
f 225 196 244
f 214 697 723
f 598 653 716
f 193 262 287
f 574 573 575
f 12 39 64
f 287 262 349
f 265 193 307
f 186 265 307
f 194 217 265
f 277 320 412
f 312 277 321
f 193 287 307
f 294 349 408
f 344 335 375
f 243 323 325
f 386 375 393
f 82 84 87
f 706 585 733
f 393 347 448
f 254 387 391
f 22 82 87
f 346 347 393
f 22 43 107
f 243 325 326
f 326 325 335
f 19 277 412
f 427 416 616
f 29 30 113
f 86 38 334
f 74 404 425
f 40 35 421
f 19 16 97
f 286 720 734
f 342 339 343
f 41 34 58
f 328 334 337
f 402 343 509
f 141 254 391
f 381 45 410
f 383 407 423
f 628 527 666
f 271 272 664
f 41 4 209
f 348 66 664
f 419 551 588
f 35 345 421
f 269 66 420
f 66 348 420
f 29 141 391
f 58 74 331
f 77 329 392
f 387 89 392
f 345 29 391
f 622 706 724
f 323 243 617
f 93 339 385
f 328 98 449
f 101 13 382
f 428 402 509
f 333 402 428
f 329 70 392
f 336 70 353
f 40 86 334
f 397 338 428
f 338 333 428
f 338 397 410
f 326 344 367
f 336 353 421
f 381 410 514
f 38 86 333
f 342 343 355
f 393 389 415
f 487 6 500
f 363 371 394
f 368 375 386
f 323 324 325
f 353 40 421
f 398 19 412
f 19 398 413
f 16 19 413
f 91 16 413
f 31 16 91
f 229 90 366
f 595 244 653
f 326 335 344
f 360 428 509
f 347 369 488
f 83 355 402
f 32 372 408
f 256 243 326
f 11 101 382
f 32 138 356
f 334 38 337
f 342 355 394
f 332 281 369
f 195 32 411
f 138 32 195
f 273 503 532
f 35 40 376
f 403 328 449
f 32 356 372
f 77 13 406
f 86 40 353
f 324 323 614
f 334 328 376
f 56 86 353
f 355 83 363
f 503 502 532
f 87 342 351
f 329 77 371
f 11 382 417
f 345 336 421
f 56 329 363
f 31 91 385
f 191 522 523
f 45 38 338
f 417 382 424
f 336 330 392
f 339 53 439
f 394 371 594
f 620 663 666
f 382 89 424
f 408 372 416
f 372 350 416
f 188 191 529
f 98 1 446
f 310 188 407
f 400 357 403
f 371 471 594
f 247 245 718
f 356 341 372
f 86 83 333
f 56 83 86
f 522 54 532
f 372 341 377
f 143 75 171
f 93 53 339
f 328 357 376
f 357 328 403
f 408 416 427
f 19 7 206
f 355 343 402
f 357 35 376
f 130 129 409
f 77 89 382
f 244 340 358
f 371 77 406
f 379 435 479
f 108 102 155
f 87 84 342
f 511 399 545
f 56 70 329
f 325 324 335
f 83 56 363
f 363 329 371
f 428 360 575
f 294 408 427
f 70 56 353
f 562 428 575
f 397 428 562
f 38 45 337
f 368 344 375
f 327 332 346
f 40 334 376
f 297 313 734
f 138 341 356
f 341 138 422
f 45 1 337
f 78 17 409
f 371 406 471
f 471 406 506
f 517 518 547
f 74 34 78
f 1 98 337
f 355 363 394
f 404 78 409
f 367 344 368
f 320 398 412
f 351 342 394
f 91 413 414
f 389 59 415
f 386 393 415
f 67 302 317
f 349 116 411
f 604 281 611
f 70 336 392
f 608 427 616
f 49 30 400
f 298 37 390
f 406 13 506
f 30 357 400
f 350 44 616
f 30 35 357
f 413 398 414
f 298 274 308
f 347 332 369
f 91 93 385
f 245 261 718
f 697 703 715
f 280 71 388
f 130 17 209
f 346 332 347
f 491 304 588
f 416 350 616
f 74 78 404
f 141 29 239
f 7 22 107
f 62 90 578
f 58 34 74
f 281 324 611
f 731 719 732
f 448 347 545
f 319 354 584
f 408 349 411
f 368 386 405
f 21 10 26
f 354 319 521
f 347 455 545
f 452 469 533
f 644 14 666
f 8 59 399
f 59 389 399
f 557 473 679
f 439 53 464
f 634 46 646
f 719 622 724
f 642 95 652
f 254 260 387
f 59 8 464
f 458 6 536
f 704 306 728
f 232 439 535
f 439 232 476
f 454 28 463
f 663 644 666
f 331 74 458
f 700 247 718
f 243 263 617
f 702 731 732
f 710 711 727
f 426 476 492
f 456 474 480
f 55 449 456
f 505 285 738
f 426 339 439
f 439 464 535
f 441 461 472
f 233 274 451
f 441 472 482
f 454 463 477
f 475 461 477
f 641 620 666
f 482 472 695
f 463 450 475
f 463 475 477
f 472 447 695
f 441 482 690
f 441 63 461
f 540 526 709
f 625 570 649
f 460 463 474
f 656 540 709
f 570 584 662
f 133 3 167
f 472 461 475
f 466 447 472
f 710 714 721
f 440 63 441
f 450 466 475
f 460 450 463
f 196 181 300
f 435 429 479
f 461 454 477
f 433 429 468
f 429 433 479
f 474 463 480
f 276 137 322
f 466 472 475
f 383 444 577
f 471 506 596
f 426 439 476
f 55 456 480
f 253 266 291
f 433 465 479
f 99 100 436
f 465 379 479
f 53 59 464
f 438 63 440
f 626 14 644
f 114 701 714
f 434 99 436
f 121 644 663
f 217 116 262
f 444 445 481
f 8 399 535
f 433 434 465
f 465 434 478
f 384 359 589
f 33 454 461
f 456 443 474
f 443 460 474
f 444 383 459
f 445 444 459
f 445 446 481
f 299 247 700
f 467 465 478
f 467 436 686
f 1 381 446
f 230 567 643
f 442 451 457
f 13 437 506
f 453 625 636
f 631 699 739
f 452 442 457
f 460 459 469
f 443 445 459
f 390 447 451
f 451 447 457
f 452 460 469
f 443 459 460
f 446 445 456
f 437 13 458
f 216 79 440
f 712 697 726
f 463 28 480
f 434 436 478
f 436 467 478
f 447 390 462
f 452 457 466
f 445 443 456
f 694 712 726
f 63 33 461
f 13 101 458
f 74 6 458
f 449 446 456
f 457 447 466
f 450 452 466
f 452 450 460
f 660 525 709
f 617 566 627
f 94 79 687
f 512 493 555
f 311 281 604
f 315 311 555
f 493 315 555
f 369 311 488
f 544 542 583
f 311 315 549
f 512 544 563
f 512 542 544
f 493 512 563
f 488 311 515
f 515 311 549
f 315 493 510
f 315 510 549
f 283 233 442
f 564 544 587
f 455 488 515
f 455 347 488
f 563 544 564
f 290 493 563
f 493 290 510
f 486 515 549
f 486 455 515
f 36 455 486
f 560 563 564
f 510 486 549
f 501 295 533
f 490 564 587
f 36 486 586
f 486 510 586
f 490 548 564
f 563 560 565
f 290 563 565
f 510 290 586
f 473 490 717
f 36 511 545
f 511 36 586
f 314 396 568
f 682 473 717
f 548 495 564
f 495 560 564
f 490 473 548
f 495 548 557
f 516 511 586
f 290 489 586
f 489 290 565
f 399 511 516
f 244 248 653
f 42 399 516
f 129 384 409
f 489 516 586
f 374 229 683
f 296 489 565
f 560 296 565
f 516 489 541
f 42 516 541
f 188 295 423
f 100 103 674
f 495 296 560
f 52 465 467
f 52 379 465
f 249 52 467
f 399 42 535
f 92 52 249
f 520 487 667
f 541 489 561
f 535 42 541
f 107 43 257
f 240 289 679
f 289 240 557
f 90 229 231
f 90 231 273
f 505 552 679
f 552 240 679
f 557 240 571
f 495 557 571
f 296 495 550
f 495 571 572
f 550 495 572
f 489 296 561
f 2 470 528
f 231 229 374
f 296 550 561
f 365 541 561
f 470 370 591
f 370 470 527
f 704 728 740
f 508 232 541
f 365 508 541
f 232 535 541
f 550 365 561
f 503 283 530
f 295 529 530
f 295 188 529
f 502 503 523
f 240 552 576
f 92 249 255
f 240 498 571
f 571 498 572
f 308 283 503
f 229 366 683
f 499 514 562
f 498 365 550
f 498 550 572
f 249 467 686
f 499 553 577
f 370 527 628
f 556 562 575
f 278 365 498
f 365 278 508
f 273 231 503
f 396 310 577
f 554 553 556
f 362 524 579
f 576 378 729
f 191 523 530
f 404 370 513
f 292 304 491
f 529 191 530
f 419 519 551
f 24 240 576
f 278 232 508
f 407 188 423
f 310 314 531
f 30 49 140
f 101 26 458
f 528 593 598
f 534 656 723
f 585 576 729
f 232 278 537
f 360 546 575
f 423 295 501
f 240 316 498
f 316 278 498
f 62 176 366
f 419 305 578
f 66 269 379
f 24 576 585
f 240 24 316
f 278 316 537
f 425 404 513
f 14 487 628
f 500 513 628
f 47 81 429
f 569 24 585
f 269 47 429
f 487 500 628
f 476 232 537
f 379 269 435
f 537 316 580
f 269 429 435
f 242 176 352
f 643 569 706
f 559 24 569
f 316 24 580
f 380 401 507
f 559 569 643
f 492 476 580
f 476 537 580
f 6 487 536
f 380 507 670
f 567 559 643
f 184 24 559
f 24 184 580
f 487 520 536
f 536 520 581
f 401 497 507
f 395 567 662
f 395 559 567
f 184 492 580
f 144 359 384
f 317 72 497
f 497 72 507
f 584 395 662
f 395 184 559
f 520 50 581
f 25 20 282
f 282 20 582
f 649 570 662
f 184 395 496
f 581 50 596
f 80 65 670
f 25 65 80
f 20 25 292
f 517 547 570
f 395 279 496
f 492 184 496
f 539 581 596
f 539 536 581
f 437 536 539
f 469 383 501
f 343 426 492
f 72 5 507
f 507 5 670
f 20 491 582
f 491 517 582
f 547 319 570
f 570 319 584
f 279 395 584
f 492 496 509
f 5 80 670
f 496 279 546
f 509 496 546
f 500 425 513
f 302 72 317
f 20 292 491
f 521 319 547
f 79 63 438
f 523 503 530
f 506 437 539
f 469 501 533
f 80 5 485
f 25 80 504
f 292 25 504
f 614 323 617
f 698 694 722
f 566 525 660
f 263 525 566
f 359 358 592
f 263 288 739
f 725 702 729
f 614 617 627
f 351 394 594
f 87 351 594
f 324 281 327
f 506 539 596
f 87 594 601
f 594 599 601
f 43 87 601
f 587 583 633
f 594 471 599
f 601 599 602
f 43 601 602
f 471 596 599
f 596 597 599
f 599 597 602
f 43 602 603
f 596 50 597
f 603 605 707
f 603 602 648
f 605 603 648
f 526 660 709
f 623 121 735
f 284 214 723
f 699 656 705
f 707 605 737
f 637 707 737
f 720 640 734
f 114 64 301
f 708 291 740
f 606 46 634
f 602 640 648
f 607 609 737
f 613 606 634
f 589 359 591
f 43 22 87
f 609 615 637
f 618 634 650
f 615 618 650
f 618 613 634
f 609 607 610
f 609 610 612
f 609 612 615
f 494 613 618
f 286 608 610
f 610 608 612
f 286 252 608
f 618 612 619
f 615 612 618
f 494 618 619
f 252 427 608
f 612 616 619
f 612 608 616
f 513 370 628
f 100 674 678
f 602 111 640
f 114 276 701
f 384 370 404
f 370 589 591
f 732 724 736
f 487 14 667
f 187 64 727
f 370 384 589
f 528 591 592
f 437 458 536
f 380 96 401
f 380 543 632
f 96 380 632
f 318 380 670
f 635 484 658
f 484 635 636
f 484 636 654
f 636 431 654
f 230 431 662
f 638 430 659
f 583 538 715
f 111 50 629
f 65 25 453
f 652 230 706
f 528 470 591
f 654 661 668
f 654 431 661
f 431 109 661
f 318 65 658
f 65 635 658
f 642 630 646
f 543 484 651
f 431 636 649
f 634 646 650
f 646 630 650
f 431 649 662
f 505 378 552
f 637 630 707
f 567 230 662
f 604 614 627
f 50 111 597
f 543 318 658
f 647 659 730
f 380 318 543
f 569 585 706
f 260 417 424
f 659 721 730
f 440 441 690
f 605 607 737
f 629 638 647
f 484 432 651
f 257 719 731
f 95 642 646
f 432 484 668
f 455 36 545
f 512 540 542
f 661 646 668
f 640 111 713
f 343 492 509
f 679 473 682
f 664 92 684
f 14 626 667
f 95 109 652
f 484 654 668
f 65 318 670
f 626 430 638
f 715 534 723
f 250 276 301
f 50 520 667
f 627 566 660
f 582 570 625
f 430 626 644
f 306 251 728
f 230 109 431
f 636 625 649
f 629 50 667
f 725 505 738
f 484 543 658
f 111 629 639
f 542 538 583
f 512 526 540
f 626 629 667
f 109 230 652
f 637 615 650
f 640 605 648
f 647 638 659
f 282 582 625
f 629 626 638
f 453 282 625
f 109 95 661
f 25 282 453
f 230 643 706
f 526 627 660
f 639 629 647
f 592 340 593
f 705 709 739
f 702 732 736
f 708 483 716
f 483 600 716
f 609 637 737
f 544 583 587
f 14 628 666
f 483 708 740
f 600 598 716
f 528 598 600
f 540 538 542
f 526 555 627
f 483 2 600
f 114 714 727
f 2 483 669
f 2 528 600
f 528 592 593
f 635 453 636
f 517 570 582
f 621 110 645
f 483 110 669
f 534 538 540
f 470 2 669
f 281 311 369
f 630 637 650
f 432 46 606
f 620 110 621
f 110 620 669
f 688 440 690
f 552 378 576
f 606 590 632
f 606 632 651
f 645 657 735
f 621 645 735
f 620 621 663
f 620 641 669
f 527 470 641
f 641 470 669
f 639 647 730
f 432 606 651
f 597 111 602
f 490 587 633
f 436 100 678
f 717 633 741
f 682 694 738
f 285 679 682
f 285 682 738
f 534 540 656
f 691 255 693
f 176 271 664
f 721 701 730
f 286 607 720
f 683 664 684
f 374 683 689
f 176 664 683
f 683 684 689
f 676 374 689
f 684 92 689
f 241 37 298
f 92 255 689
f 689 255 691
f 689 691 692
f 676 689 692
f 672 676 692
f 672 241 676
f 655 241 672
f 37 241 655
f 37 655 680
f 624 672 692
f 624 655 672
f 655 462 680
f 447 462 695
f 384 404 409
f 692 691 693
f 713 701 734
f 41 58 331
f 4 41 331
f 690 482 695
f 675 692 693
f 675 624 692
f 624 259 655
f 462 655 673
f 462 673 695
f 655 259 673
f 159 140 204
f 73 9 172
f 172 9 685
f 249 686 693
f 132 172 685
f 390 37 680
f 241 298 676
f 624 675 677
f 259 624 677
f 673 690 695
f 298 374 676
f 673 259 688
f 673 688 690
f 261 702 718
f 678 675 693
f 677 675 678
f 686 678 693
f 674 677 678
f 259 216 688
f 216 440 688
f 585 729 733
f 436 678 686
f 259 677 696
f 216 259 696
f 555 311 604
f 677 674 696
f 79 216 687
f 674 665 696
f 687 216 696
f 399 393 448
f 671 665 674
f 665 685 696
f 685 687 696
f 253 248 266
f 665 671 681
f 685 9 687
f 665 681 685
f 300 246 306
f 505 725 729
f 671 183 681
f 604 611 614
f 255 249 693
f 611 324 614
f 28 88 480
f 694 682 717
f 555 604 627
f 462 390 680
